<svg width="628" height="146" viewBox="0 0 628 146" fill="none" xmlns="http://www.w3.org/2000/svg">
<path d="M143.4 73C143.4 94.3333 136.733 111.733 123.4 125.2C110.067 138.667 92.8 145.4 71.6 145.4C51.7333 145.4 34.8667 139 21 126.2C7.26667 113.267 0.400001 95.5333 0.400001 73C0.400001 57.9333 3.8 44.8 10.6 33.6C17.5333 22.4 26.3333 14.1333 37 8.8C47.8 3.46666 59.5333 0.799995 72.2 0.799995C81.5333 0.799995 90.4 2.39999 98.8 5.59999C107.2 8.79999 114.733 13.3333 121.4 19.2C128.2 25.0667 133.533 32.6667 137.4 42C141.4 51.3333 143.4 61.6667 143.4 73ZM30.6 73C30.6 87.5333 34.5333 98.6667 42.4 106.4C50.2667 114.133 60.1333 118 72 118C83.7333 118 93.6 114.133 101.6 106.4C109.6 98.6667 113.6 87.5333 113.6 73C113.6 58.8667 109.6 47.9333 101.6 40.2C93.6 32.3333 83.8 28.4 72.2 28.4C60.4667 28.4 50.6 32.3333 42.6 40.2C34.6 47.9333 30.6 58.8667 30.6 73ZM330.389 143H300.389V83.8H246.789V143H216.989V2.99999H246.789V56.4H300.389V2.99999H330.389V143ZM445.492 119.8H387.292L376.492 143H345.292V139L409.692 1.79999H423.492L487.492 139V143H456.492L445.492 119.8ZM416.492 48.4L397.092 94.6H435.892L416.492 48.4ZM491.22 73.2C491.22 50.9333 498.287 33.4 512.42 20.6C526.554 7.66666 543.354 1.33333 562.82 1.6C578.287 1.6 592.154 5.86666 604.42 14.4C616.687 22.8 624.354 35.1333 627.42 51.4H598.42C592.42 36.2 580.554 28.6 562.82 28.6C550.42 28.6 540.42 32.7333 532.82 41C525.22 49.1333 521.42 59.8667 521.42 73.2C521.42 85.4667 525.22 95.8667 532.82 104.4C540.42 112.933 550.354 117.2 562.62 117.2C571.554 117.2 579.287 115.067 585.82 110.8C592.354 106.533 596.754 100.267 599.02 92H627.82C625.02 109.333 617.487 122.4 605.22 131.2C592.954 140 578.82 144.4 562.82 144.4C553.487 144.4 544.554 142.867 536.02 139.8C527.487 136.6 519.887 132.133 513.22 126.4C506.554 120.533 501.22 113 497.22 103.8C493.22 94.6 491.22 84.4 491.22 73.2Z" fill="white"/>
</svg>
