<svg width="18" height="19" viewBox="0 0 18 19" fill="none" xmlns="http://www.w3.org/2000/svg">
<path d="M17.5 2.625V16.375C17.5 16.8958 17.3177 17.3385 16.9531 17.7031C16.5885 18.0677 16.1458 18.25 15.625 18.25H12.3047V11.3359H14.6484L15 8.67969H12.3047V7C12.3047 6.58333 12.3828 6.27083 12.5391 6.0625C12.7474 5.82812 13.099 5.71094 13.5938 5.71094H15V3.36719C14.4531 3.28906 13.776 3.25 12.9688 3.25C11.9271 3.25 11.0938 3.5625 10.4688 4.1875C9.86979 4.78646 9.57031 5.63281 9.57031 6.72656V8.67969H7.1875V11.3359H9.57031V18.25H1.875C1.35417 18.25 0.911458 18.0677 0.546875 17.7031C0.182292 17.3385 0 16.8958 0 16.375V2.625C0 2.10417 0.182292 1.66146 0.546875 1.29688C0.911458 0.932292 1.35417 0.75 1.875 0.75H15.625C16.1458 0.75 16.5885 0.932292 16.9531 1.29688C17.3177 1.66146 17.5 2.10417 17.5 2.625Z" fill="#D1A64A"/>
</svg>
