<svg width="607" height="322" viewBox="0 0 607 322" fill="none" xmlns="http://www.w3.org/2000/svg">
<path fill-rule="evenodd" clip-rule="evenodd" d="M11 1C5.47715 1 1 5.47715 1 11V290V297V321C2.27052 316.361 9.25839 307.082 27.0457 307.082C27.9262 307.082 28.6951 307.054 29.3594 307H596C601.523 307 606 302.523 606 297V11C606 5.47715 601.523 1 596 1H11Z" fill="white"/>
<path d="M1 321H0.5L1.48224 321.132L1 321ZM29.3594 307V306.5H29.3392L29.319 306.502L29.3594 307ZM1.5 11C1.5 5.75329 5.75329 1.5 11 1.5V0.5C5.20101 0.5 0.5 5.20101 0.5 11H1.5ZM1.5 290V11H0.5V290H1.5ZM1.5 297V290H0.5V297H1.5ZM1.5 321V297H0.5V321H1.5ZM27.0457 306.582C9.0671 306.582 1.85631 315.98 0.517756 320.868L1.48224 321.132C2.68474 316.741 9.44968 307.582 27.0457 307.582V306.582ZM29.319 306.502C28.6712 306.554 27.9161 306.582 27.0457 306.582V307.582C27.9362 307.582 28.7189 307.553 29.3997 307.498L29.319 306.502ZM596 306.5H29.3594V307.5H596V306.5ZM605.5 297C605.5 302.247 601.247 306.5 596 306.5V307.5C601.799 307.5 606.5 302.799 606.5 297H605.5ZM605.5 11V297H606.5V11H605.5ZM596 1.5C601.247 1.5 605.5 5.75329 605.5 11H606.5C606.5 5.20101 601.799 0.5 596 0.5V1.5ZM11 1.5H596V0.5H11V1.5Z" fill="#E1E1E1"/>
</svg>
