<svg width="22" height="13" viewBox="0 0 22 13" fill="none" xmlns="http://www.w3.org/2000/svg">
<path d="M21.2891 1.10938C21.4453 0.536458 21.2109 0.25 20.5859 0.25H18.2812C17.8125 0.25 17.487 0.471354 17.3047 0.914062L16.9141 1.69531C16.6016 2.3724 16.276 2.9974 15.9375 3.57031C15.4427 4.3776 14.9479 5.05469 14.4531 5.60156C14.1927 5.88802 13.9844 6.08333 13.8281 6.1875C13.6719 6.26562 13.5286 6.30469 13.3984 6.30469C13.2943 6.30469 13.2031 6.2526 13.125 6.14844C13.0469 6.04427 13.0078 5.875 13.0078 5.64062V1.10938C13.0078 0.796875 12.9557 0.575521 12.8516 0.445312C12.7734 0.315104 12.6172 0.25 12.3828 0.25H8.75C8.59375 0.25 8.45052 0.302083 8.32031 0.40625C8.21615 0.510417 8.16406 0.640625 8.16406 0.796875C8.16406 0.927083 8.25521 1.10938 8.4375 1.34375C8.61979 1.55208 8.75 1.7474 8.82812 1.92969C8.98438 2.24219 9.07552 2.60677 9.10156 3.02344V6.42188C9.10156 6.76042 9.0625 6.99479 8.98438 7.125C8.93229 7.22917 8.82812 7.28125 8.67188 7.28125C8.41146 7.28125 8.04688 6.99479 7.57812 6.42188C7.10938 5.84896 6.64062 5.10677 6.17188 4.19531C5.65104 3.20573 5.20833 2.1901 4.84375 1.14844C4.73958 0.809896 4.60938 0.575521 4.45312 0.445312C4.32292 0.315104 4.11458 0.25 3.82812 0.25H1.52344C1.0026 0.25 0.742188 0.471354 0.742188 0.914062C0.742188 1.17448 0.833333 1.63021 1.01562 2.28125C1.30208 3.08854 1.67969 3.96094 2.14844 4.89844C2.7474 6.1224 3.48958 7.33333 4.375 8.53125C5.3125 9.88542 6.40625 10.9271 7.65625 11.6562C8.90625 12.3854 10.1432 12.75 11.3672 12.75C12.0703 12.75 12.5391 12.6719 12.7734 12.5156C12.9557 12.3854 13.0339 12.1641 13.0078 11.8516V10.8359C13.0078 10.2109 13.0208 9.80729 13.0469 9.625C13.0469 9.36458 13.0859 9.19531 13.1641 9.11719C13.2682 9.03906 13.4245 9 13.6328 9C14.1276 9 14.8958 9.49479 15.9375 10.4844C16.25 10.7969 16.6016 11.1875 16.9922 11.6562C17.4089 12.099 17.6953 12.3724 17.8516 12.4766C18.0859 12.6589 18.3464 12.75 18.6328 12.75H20.9375C21.25 12.75 21.4714 12.6719 21.6016 12.5156C21.7578 12.3333 21.7969 12.0859 21.7188 11.7734C21.4844 11.0443 20.4297 9.71615 18.5547 7.78906L18.2031 7.39844C18.0469 7.21615 17.9688 7.0599 17.9688 6.92969C17.9688 6.79948 18.0469 6.61719 18.2031 6.38281C18.2292 6.35677 18.4766 6.00521 18.9453 5.32812C19.4922 4.46875 19.9609 3.71354 20.3516 3.0625C20.8984 2.15104 21.2109 1.5 21.2891 1.10938Z" fill="#D1A64A"/>
</svg>
