<svg width="22" height="23" viewBox="0 0 22 23" fill="none" xmlns="http://www.w3.org/2000/svg">
<path d="M21.875 3.03125V20.2188C21.875 20.8698 21.6471 21.4232 21.1914 21.8789C20.7357 22.3346 20.1823 22.5625 19.5312 22.5625H15.3809V13.9199H18.3105L18.75 10.5996H15.3809V8.5C15.3809 7.97917 15.4785 7.58854 15.6738 7.32812C15.9342 7.03516 16.3737 6.88867 16.9922 6.88867H18.75V3.95898C18.0664 3.86133 17.2201 3.8125 16.2109 3.8125C14.9089 3.8125 13.8672 4.20312 13.0859 4.98438C12.3372 5.73307 11.9629 6.79102 11.9629 8.1582V10.5996H8.98438V13.9199H11.9629V22.5625H2.34375C1.69271 22.5625 1.13932 22.3346 0.683594 21.8789C0.227865 21.4232 0 20.8698 0 20.2188V3.03125C0 2.38021 0.227865 1.82682 0.683594 1.37109C1.13932 0.915365 1.69271 0.6875 2.34375 0.6875H19.5312C20.1823 0.6875 20.7357 0.915365 21.1914 1.37109C21.6471 1.82682 21.875 2.38021 21.875 3.03125Z" fill="#D1A64A"/>
</svg>
