<svg width="22" height="23" viewBox="0 0 22 23" fill="none" xmlns="http://www.w3.org/2000/svg">
<path d="M10.9375 6.00977C9.92839 6.00977 8.98438 6.27018 8.10547 6.79102C7.25911 7.2793 6.57552 7.96289 6.05469 8.8418C5.56641 9.68815 5.32227 10.6159 5.32227 11.625C5.32227 12.6341 5.56641 13.5781 6.05469 14.457C6.57552 15.3034 7.25911 15.987 8.10547 16.5078C8.98438 16.9961 9.92839 17.2402 10.9375 17.2402C11.9466 17.2402 12.8743 16.9961 13.7207 16.5078C14.5996 15.987 15.2832 15.3034 15.7715 14.457C16.2923 13.5781 16.5527 12.6341 16.5527 11.625C16.5527 10.6159 16.2923 9.68815 15.7715 8.8418C15.2832 7.96289 14.5996 7.2793 13.7207 6.79102C12.8743 6.27018 11.9466 6.00977 10.9375 6.00977ZM10.9375 15.2871C9.92839 15.2871 9.06576 14.929 8.34961 14.2129C7.63346 13.4967 7.27539 12.6341 7.27539 11.625C7.27539 10.6159 7.63346 9.75326 8.34961 9.03711C9.06576 8.32096 9.92839 7.96289 10.9375 7.96289C11.9466 7.96289 12.8092 8.32096 13.5254 9.03711C14.2415 9.75326 14.5996 10.6159 14.5996 11.625C14.5996 12.6341 14.2415 13.4967 13.5254 14.2129C12.8092 14.929 11.9466 15.2871 10.9375 15.2871ZM18.1152 5.76562C18.0827 6.1237 17.9362 6.43294 17.6758 6.69336C17.4479 6.95378 17.1549 7.08398 16.7969 7.08398C16.4388 7.08398 16.1296 6.95378 15.8691 6.69336C15.6087 6.43294 15.4785 6.1237 15.4785 5.76562C15.4785 5.40755 15.6087 5.09831 15.8691 4.83789C16.1296 4.57747 16.4388 4.44727 16.7969 4.44727C17.1549 4.44727 17.4642 4.57747 17.7246 4.83789C17.985 5.09831 18.1152 5.40755 18.1152 5.76562ZM21.8262 7.08398C21.7611 6.13997 21.6146 5.32617 21.3867 4.64258C21.0938 3.82878 20.638 3.12891 20.0195 2.54297C19.4336 1.92448 18.7337 1.46875 17.9199 1.17578C17.2363 0.947917 16.4225 0.817708 15.4785 0.785156C14.5671 0.720052 13.0534 0.6875 10.9375 0.6875C8.82161 0.6875 7.29167 0.720052 6.34766 0.785156C5.4362 0.817708 4.63867 0.947917 3.95508 1.17578C3.14128 1.46875 2.42513 1.92448 1.80664 2.54297C1.2207 3.12891 0.78125 3.82878 0.488281 4.64258C0.260417 5.32617 0.113932 6.13997 0.0488281 7.08398C0.016276 7.99544 0 9.50911 0 11.625C0 13.7409 0.016276 15.2708 0.0488281 16.2148C0.113932 17.1263 0.260417 17.9238 0.488281 18.6074C0.78125 19.4212 1.2207 20.1374 1.80664 20.7559C2.42513 21.3418 3.14128 21.765 3.95508 22.0254C4.63867 22.2858 5.4362 22.4323 6.34766 22.4648C7.29167 22.5299 8.82161 22.5625 10.9375 22.5625C13.0534 22.5625 14.5671 22.5299 15.4785 22.4648C16.4225 22.4323 17.2363 22.3021 17.9199 22.0742C18.7337 21.7812 19.4336 21.3418 20.0195 20.7559C20.638 20.1374 21.0938 19.4212 21.3867 18.6074C21.6146 17.9238 21.7448 17.1263 21.7773 16.2148C21.8424 15.2708 21.875 13.7409 21.875 11.625C21.875 9.50911 21.8587 7.99544 21.8262 7.08398ZM19.4824 18.0703C19.0918 19.0469 18.3919 19.7467 17.3828 20.1699C16.862 20.3652 15.9831 20.4954 14.7461 20.5605C14.0625 20.5931 13.0534 20.6094 11.7188 20.6094H10.1562C8.85417 20.6094 7.84505 20.5931 7.12891 20.5605C5.92448 20.4954 5.04557 20.3652 4.49219 20.1699C3.51562 19.7793 2.81576 19.0794 2.39258 18.0703C2.19727 17.5169 2.06706 16.638 2.00195 15.4336C1.9694 14.7174 1.95312 13.7083 1.95312 12.4062V10.8438C1.95312 9.54167 1.9694 8.53255 2.00195 7.81641C2.06706 6.57943 2.19727 5.70052 2.39258 5.17969C2.7832 4.17057 3.48307 3.4707 4.49219 3.08008C5.04557 2.88477 5.92448 2.75456 7.12891 2.68945C7.84505 2.6569 8.85417 2.64062 10.1562 2.64062H11.7188C13.0208 2.64062 14.0299 2.6569 14.7461 2.68945C15.9831 2.75456 16.862 2.88477 17.3828 3.08008C18.3919 3.4707 19.0918 4.17057 19.4824 5.17969C19.6777 5.70052 19.8079 6.57943 19.873 7.81641C19.9056 8.5 19.9219 9.50911 19.9219 10.8438V12.4062C19.9219 13.7083 19.9056 14.7174 19.873 15.4336C19.8079 16.638 19.6777 17.5169 19.4824 18.0703Z" fill="#D1A64A"/>
</svg>
