<svg width="28" height="19" viewBox="0 0 28 19" fill="none" xmlns="http://www.w3.org/2000/svg">
<path d="M26.8555 3.17969C26.6927 2.59375 26.3997 2.08919 25.9766 1.66602C25.5534 1.24284 25.0488 0.94987 24.4629 0.787109C23.6165 0.559245 21.6309 0.396484 18.5059 0.298828L14.0625 0.25L9.61914 0.298828C6.49414 0.396484 4.50846 0.559245 3.66211 0.787109C3.07617 0.94987 2.57161 1.24284 2.14844 1.66602C1.72526 2.08919 1.43229 2.59375 1.26953 3.17969C1.04167 4.05859 0.878906 5.39323 0.78125 7.18359C0.748698 8.09505 0.732422 8.90885 0.732422 9.625L0.78125 12.0664C0.878906 13.8893 1.04167 15.2402 1.26953 16.1191C1.43229 16.6725 1.72526 17.1608 2.14844 17.584C2.57161 18.0072 3.07617 18.3001 3.66211 18.4629C4.50846 18.6908 6.49414 18.8535 9.61914 18.9512L14.0625 19L18.5059 18.9512C21.6309 18.8535 23.6165 18.6908 24.4629 18.4629C25.0488 18.3001 25.5534 18.0072 25.9766 17.584C26.3997 17.1608 26.6927 16.6725 26.8555 16.1191C27.0833 15.2402 27.2461 13.8893 27.3438 12.0664L27.3926 9.625L27.3438 7.18359C27.2461 5.39323 27.0833 4.05859 26.8555 3.17969ZM11.3281 13.6289V5.66992L18.3105 9.625L11.3281 13.6289Z" fill="#D1A64A"/>
</svg>
