<svg width="28" height="17" viewBox="0 0 28 17" fill="none" xmlns="http://www.w3.org/2000/svg">
<path d="M26.6113 1.88672C26.8066 1.17057 26.5137 0.8125 25.7324 0.8125H22.8516C22.2656 0.8125 21.8587 1.08919 21.6309 1.64258L21.1426 2.61914C20.752 3.46549 20.3451 4.24674 19.9219 4.96289C19.3034 5.97201 18.6849 6.81836 18.0664 7.50195C17.7409 7.86003 17.4805 8.10417 17.2852 8.23438C17.0898 8.33203 16.9108 8.38086 16.748 8.38086C16.6178 8.38086 16.5039 8.31576 16.4062 8.18555C16.3086 8.05534 16.2598 7.84375 16.2598 7.55078V1.88672C16.2598 1.49609 16.1947 1.2194 16.0645 1.05664C15.9668 0.89388 15.7715 0.8125 15.4785 0.8125H10.9375C10.7422 0.8125 10.5632 0.877604 10.4004 1.00781C10.2702 1.13802 10.2051 1.30078 10.2051 1.49609C10.2051 1.65885 10.319 1.88672 10.5469 2.17969C10.7747 2.4401 10.9375 2.68424 11.0352 2.91211C11.2305 3.30273 11.3444 3.75846 11.377 4.2793V8.52734C11.377 8.95052 11.3281 9.24349 11.2305 9.40625C11.1654 9.53646 11.0352 9.60156 10.8398 9.60156C10.5143 9.60156 10.0586 9.24349 9.47266 8.52734C8.88672 7.8112 8.30078 6.88346 7.71484 5.74414C7.0638 4.50716 6.51042 3.23763 6.05469 1.93555C5.92448 1.51237 5.76172 1.2194 5.56641 1.05664C5.40365 0.89388 5.14323 0.8125 4.78516 0.8125H1.9043C1.25326 0.8125 0.927734 1.08919 0.927734 1.64258C0.927734 1.9681 1.04167 2.53776 1.26953 3.35156C1.6276 4.36068 2.09961 5.45117 2.68555 6.62305C3.43424 8.15299 4.36198 9.66667 5.46875 11.1641C6.64062 12.8568 8.00781 14.1589 9.57031 15.0703C11.1328 15.9818 12.679 16.4375 14.209 16.4375C15.0879 16.4375 15.6738 16.3398 15.9668 16.1445C16.1947 15.9818 16.2923 15.7051 16.2598 15.3145V14.0449C16.2598 13.2637 16.276 12.7591 16.3086 12.5312C16.3086 12.2057 16.3574 11.9941 16.4551 11.8965C16.5853 11.7988 16.7806 11.75 17.041 11.75C17.6595 11.75 18.6198 12.3685 19.9219 13.6055C20.3125 13.9961 20.752 14.4844 21.2402 15.0703C21.7611 15.6237 22.1191 15.9655 22.3145 16.0957C22.6074 16.3236 22.9329 16.4375 23.291 16.4375H26.1719C26.5625 16.4375 26.8392 16.3398 27.002 16.1445C27.1973 15.9167 27.2461 15.6074 27.1484 15.2168C26.8555 14.3053 25.5371 12.6452 23.1934 10.2363L22.7539 9.74805C22.5586 9.52018 22.4609 9.32487 22.4609 9.16211C22.4609 8.99935 22.5586 8.77148 22.7539 8.47852C22.7865 8.44596 23.0957 8.00651 23.6816 7.16016C24.3652 6.08594 24.9512 5.14193 25.4395 4.32812C26.123 3.1888 26.5137 2.375 26.6113 1.88672Z" fill="#D1A64A"/>
</svg>
