<svg width="197" height="103" viewBox="0 0 197 103" fill="none" xmlns="http://www.w3.org/2000/svg">
<path fill-rule="evenodd" clip-rule="evenodd" d="M196.887 4.57253C194.93 4.29271 193.426 2.61028 193.426 0.576605C193.426 0.380836 193.44 0.188322 193.467 0H0V102.65H193.815C193.566 102.126 193.426 101.539 193.426 100.92C193.426 98.8864 194.93 97.204 196.887 96.9242V92.229C194.93 91.9492 193.426 90.2668 193.426 88.2331C193.426 86.1994 194.93 84.517 196.887 84.2372V79.5418C194.93 79.262 193.426 77.5795 193.426 75.5458C193.426 73.5122 194.93 71.8297 196.887 71.5499V66.8548C194.93 66.5749 193.426 64.8925 193.426 62.8588C193.426 60.8252 194.93 59.1427 196.887 58.8629V54.1677C194.93 53.8879 193.426 52.2055 193.426 50.1718C193.426 48.1381 194.93 46.4557 196.887 46.1759V41.4863C194.93 41.2464 193.426 39.8043 193.426 38.0612C193.426 36.3181 194.93 34.876 196.887 34.6361V29.9468C194.93 29.667 193.426 27.9845 193.426 25.9509C193.426 23.9172 194.93 22.2348 196.887 21.9549V17.2595C194.93 16.9797 193.426 15.2973 193.426 13.2636C193.426 11.2299 194.93 9.54751 196.887 9.26769V4.57253Z" fill="#D1A64A"/>
</svg>
