<svg width="386" height="488" viewBox="0 0 386 488" fill="none" xmlns="http://www.w3.org/2000/svg">
<mask id="mask0_2721_615" style="mask-type:alpha" maskUnits="userSpaceOnUse" x="0" y="-1" width="386" height="489">
<rect y="-0.00012207" width="386" height="488" fill="#C4C4C4"/>
</mask>
<g mask="url(#mask0_2721_615)">
<path fill-rule="evenodd" clip-rule="evenodd" d="M39.1846 -28.1393L-510.508 527.064L-509.804 527.775L39.8881 -27.4287L39.1846 -28.1393ZM70.8038 -28.1393L-478.889 527.064L-478.185 527.775L71.5074 -27.4287L70.8038 -28.1393ZM-415.65 527.064L134.043 -28.1393L134.746 -27.4287L-414.946 527.775L-415.65 527.064ZM197.282 -28.1393L-352.411 527.064L-351.707 527.775L197.986 -27.4287L197.282 -28.1393ZM-320.791 527.064L228.901 -28.1393L229.605 -27.4287L-320.088 527.775L-320.791 527.064ZM292.141 -28.1393L-257.552 527.064L-256.848 527.775L292.844 -27.4287L292.141 -28.1393ZM-162.694 527.064L386.999 -28.1393L387.702 -27.4287L-161.99 527.775L-162.694 527.064ZM450.238 -28.1393L-99.455 527.064L-98.7514 527.775L450.941 -27.4287L450.238 -28.1393ZM-447.269 527.064L102.423 -28.1393L103.127 -27.4287L-446.566 527.775L-447.269 527.064ZM165.663 -28.1393L-384.03 527.064L-383.326 527.775L166.366 -27.4287L165.663 -28.1393ZM-289.172 527.064L260.521 -28.1393L261.224 -27.4287L-288.468 527.775L-289.172 527.064ZM323.76 -28.1393L-225.933 527.064L-225.229 527.775L324.463 -27.4287L323.76 -28.1393ZM-194.313 527.064L355.379 -28.1393L356.083 -27.4287L-193.61 527.775L-194.313 527.064ZM418.618 -28.1393L-131.074 527.064L-130.371 527.775L419.322 -27.4287L418.618 -28.1393ZM-67.8355 527.064L481.857 -28.1393L482.561 -27.4287L-67.1319 527.775L-67.8355 527.064ZM513.477 -28.1393L-36.2159 527.064L-35.5123 527.775L514.18 -27.4287L513.477 -28.1393ZM-4.59637 527.064L545.096 -28.1393L545.8 -27.4287L-3.89279 527.775L-4.59637 527.064ZM576.716 -28.1393L27.023 527.064L27.7266 527.775L577.419 -27.4287L576.716 -28.1393ZM90.2619 527.064L639.954 -28.1393L640.658 -27.4287L90.9655 527.775L90.2619 527.064ZM703.193 -28.1393L153.501 527.064L154.204 527.775L703.897 -27.4287L703.193 -28.1393ZM185.12 527.064L734.813 -28.1393L735.516 -27.4287L185.824 527.775L185.12 527.064ZM798.052 -28.1393L248.359 527.064L249.063 527.775L798.755 -27.4287L798.052 -28.1393ZM343.218 527.064L892.91 -28.1393L893.614 -27.4287L343.921 527.775L343.218 527.064ZM956.149 -28.1393L406.456 527.064L407.16 527.775L956.853 -27.4287L956.149 -28.1393ZM58.6426 527.064L608.335 -28.1393L609.039 -27.4287L59.3462 527.775L58.6426 527.064ZM671.574 -28.1393L121.881 527.064L122.585 527.775L672.277 -27.4287L671.574 -28.1393ZM216.74 527.064L766.432 -28.1393L767.136 -27.4287L217.443 527.775L216.74 527.064ZM829.671 -28.1393L279.979 527.064L280.682 527.775L830.375 -27.4287L829.671 -28.1393ZM311.598 527.064L861.291 -28.1393L861.994 -27.4287L312.302 527.775L311.598 527.064ZM924.529 -28.1393L374.837 527.064L375.54 527.775L925.233 -27.4287L924.529 -28.1393ZM438.076 527.064L987.768 -28.1393L988.472 -27.4287L438.779 527.775L438.076 527.064ZM1019.39 -28.1393L469.695 527.064L470.399 527.775L1020.09 -27.4287L1019.39 -28.1393Z" fill="#D1A64A"/>
<path fill-rule="evenodd" clip-rule="evenodd" d="M54.3746 -28.1393L-495.318 527.064L-494.614 527.775L55.0782 -27.4287L54.3746 -28.1393ZM85.9939 -28.1393L-463.699 527.064L-462.995 527.775L86.6974 -27.4287L85.9939 -28.1393ZM-400.46 527.064L149.233 -28.1393L149.937 -27.4287L-399.756 527.775L-400.46 527.064ZM212.472 -28.1393L-337.22 527.064L-336.517 527.775L213.176 -27.4287L212.472 -28.1393ZM-305.601 527.064L244.091 -28.1393L244.795 -27.4287L-304.898 527.775L-305.601 527.064ZM307.33 -28.1393L-242.362 527.064L-241.658 527.775L308.034 -27.4287L307.33 -28.1393ZM-147.504 527.064L402.189 -28.1393L402.892 -27.4287L-146.8 527.775L-147.504 527.064ZM465.428 -28.1393L-84.2648 527.064L-83.5612 527.775L466.131 -27.4287L465.428 -28.1393ZM-432.079 527.064L117.613 -28.1393L118.317 -27.4287L-431.375 527.775L-432.079 527.064ZM180.853 -28.1393L-368.84 527.064L-368.136 527.775L181.556 -27.4287L180.853 -28.1393ZM-273.982 527.064L275.711 -28.1393L276.414 -27.4287L-273.278 527.775L-273.982 527.064ZM338.95 -28.1393L-210.742 527.064L-210.039 527.775L339.654 -27.4287L338.95 -28.1393ZM-179.123 527.064L370.569 -28.1393L371.273 -27.4287L-178.419 527.775L-179.123 527.064ZM433.808 -28.1393L-115.884 527.064L-115.181 527.775L434.512 -27.4287L433.808 -28.1393ZM-52.6453 527.064L497.047 -28.1393L497.751 -27.4287L-51.9417 527.775L-52.6453 527.064ZM528.667 -28.1393L-21.0258 527.064L-20.3222 527.775L529.37 -27.4287L528.667 -28.1393ZM10.5938 527.064L560.286 -28.1393L560.99 -27.4287L11.2973 527.775L10.5938 527.064ZM591.906 -28.1393L42.2133 527.064L42.9168 527.775L592.609 -27.4287L591.906 -28.1393ZM105.452 527.064L655.144 -28.1393L655.848 -27.4287L106.155 527.775L105.452 527.064ZM718.383 -28.1393L168.691 527.064L169.394 527.775L719.087 -27.4287L718.383 -28.1393ZM200.31 527.064L750.003 -28.1393L750.706 -27.4287L201.014 527.775L200.31 527.064ZM813.242 -28.1393L263.549 527.064L264.253 527.775L813.946 -27.4287L813.242 -28.1393ZM358.408 527.064L908.1 -28.1393L908.804 -27.4287L359.111 527.775L358.408 527.064ZM971.339 -28.1393L421.646 527.064L422.35 527.775L972.043 -27.4287L971.339 -28.1393ZM73.8326 527.064L623.525 -28.1393L624.229 -27.4287L74.5362 527.775L73.8326 527.064ZM686.764 -28.1393L137.071 527.064L137.775 527.775L687.468 -27.4287L686.764 -28.1393ZM231.93 527.064L781.622 -28.1393L782.326 -27.4287L232.633 527.775L231.93 527.064ZM844.861 -28.1393L295.169 527.064L295.872 527.775L845.565 -27.4287L844.861 -28.1393ZM326.788 527.064L876.481 -28.1393L877.184 -27.4287L327.492 527.775L326.788 527.064ZM939.719 -28.1393L390.027 527.064L390.731 527.775L940.423 -27.4287L939.719 -28.1393ZM453.266 527.064L1002.96 -28.1393L1003.66 -27.4287L453.97 527.775L453.266 527.064ZM1034.58 -28.1393L484.885 527.064L485.589 527.775L1035.28 -27.4287L1034.58 -28.1393Z" fill="#D1A64A"/>
</g>
</svg>
