<svg width="14" height="16" viewBox="0 0 14 16" fill="none" xmlns="http://www.w3.org/2000/svg">
<path d="M13.125 11.4219V1.57812C13.125 1.38281 13.0566 1.2168 12.9199 1.08008C12.7832 0.943359 12.6172 0.875 12.4219 0.875H2.8125C2.03125 0.875 1.36719 1.14844 0.820312 1.69531C0.273438 2.24219 0 2.90625 0 3.6875V13.0625C0 13.8438 0.273438 14.5078 0.820312 15.0547C1.36719 15.6016 2.03125 15.875 2.8125 15.875H12.4219C12.6172 15.875 12.7832 15.8066 12.9199 15.6699C13.0566 15.5332 13.125 15.3672 13.125 15.1719V14.7031C13.125 14.4883 13.0371 14.3027 12.8613 14.1465C12.8027 13.9316 12.7734 13.5703 12.7734 13.0625C12.7734 12.5547 12.8027 12.1934 12.8613 11.9785C13.0371 11.8418 13.125 11.6562 13.125 11.4219ZM3.75 4.80078C3.75 4.76172 3.76953 4.72266 3.80859 4.68359C3.84766 4.64453 3.88672 4.625 3.92578 4.625H10.1367C10.1758 4.625 10.2148 4.64453 10.2539 4.68359C10.293 4.72266 10.3125 4.76172 10.3125 4.80078V5.38672C10.3125 5.42578 10.293 5.46484 10.2539 5.50391C10.2148 5.54297 10.1758 5.5625 10.1367 5.5625H3.92578C3.88672 5.5625 3.84766 5.54297 3.80859 5.50391C3.76953 5.46484 3.75 5.42578 3.75 5.38672V4.80078ZM3.75 6.67578C3.75 6.63672 3.76953 6.59766 3.80859 6.55859C3.84766 6.51953 3.88672 6.5 3.92578 6.5H10.1367C10.1758 6.5 10.2148 6.51953 10.2539 6.55859C10.293 6.59766 10.3125 6.63672 10.3125 6.67578V7.26172C10.3125 7.30078 10.293 7.33984 10.2539 7.37891C10.2148 7.41797 10.1758 7.4375 10.1367 7.4375H3.92578C3.88672 7.4375 3.84766 7.41797 3.80859 7.37891C3.76953 7.33984 3.75 7.30078 3.75 7.26172V6.67578ZM11.1621 14H2.8125C2.55859 14 2.33398 13.9121 2.13867 13.7363C1.96289 13.541 1.875 13.3164 1.875 13.0625C1.875 12.8086 1.96289 12.5938 2.13867 12.418C2.33398 12.2227 2.55859 12.125 2.8125 12.125H11.1621C11.1426 12.3789 11.1328 12.6914 11.1328 13.0625C11.1328 13.4336 11.1426 13.7461 11.1621 14Z" fill="#21B4C8"/>
</svg>
