<svg width="15" height="15" viewBox="0 0 15 15" fill="none" xmlns="http://www.w3.org/2000/svg">
<path d="M7.5 0.109375C6.19141 0.109375 4.98047 0.441406 3.86719 1.10547C2.75391 1.75 1.86523 2.62891 1.20117 3.74219C0.556641 4.85547 0.234375 6.06641 0.234375 7.375C0.234375 8.68359 0.556641 9.89453 1.20117 11.0078C1.86523 12.1211 2.75391 13 3.86719 13.6445C4.98047 14.3086 6.19141 14.6406 7.5 14.6406C8.80859 14.6406 10.0195 14.3086 11.1328 13.6445C12.2461 13 13.125 12.1211 13.7695 11.0078C14.4336 9.89453 14.7656 8.68359 14.7656 7.375C14.7656 6.06641 14.4336 4.85547 13.7695 3.74219C13.125 2.62891 12.2461 1.75 11.1328 1.10547C10.0195 0.441406 8.80859 0.109375 7.5 0.109375ZM9.16992 10.3633L6.5918 8.48828C6.49414 8.41016 6.44531 8.3125 6.44531 8.19531V3.27344C6.44531 3.17578 6.47461 3.09766 6.5332 3.03906C6.61133 2.96094 6.69922 2.92188 6.79688 2.92188H8.20312C8.30078 2.92188 8.37891 2.96094 8.4375 3.03906C8.51562 3.09766 8.55469 3.17578 8.55469 3.27344V7.31641L10.4297 8.66406C10.5078 8.72266 10.5469 8.80078 10.5469 8.89844C10.5664 8.99609 10.5469 9.08398 10.4883 9.16211L9.66797 10.2754C9.60938 10.3535 9.53125 10.4023 9.43359 10.4219C9.33594 10.4414 9.24805 10.4219 9.16992 10.3633Z" fill="#21B4C8"/>
</svg>
