<svg width="17" height="12" viewBox="0 0 17 12" fill="none" xmlns="http://www.w3.org/2000/svg">
<path d="M9.84375 0.75H1.40625C1.01562 0.75 0.683594 0.886719 0.410156 1.16016C0.136719 1.43359 0 1.76563 0 2.15625V10.5938C0 10.9844 0.136719 11.3164 0.410156 11.5898C0.683594 11.8633 1.01562 12 1.40625 12H9.84375C10.2344 12 10.5664 11.8633 10.8398 11.5898C11.1133 11.3164 11.25 10.9844 11.25 10.5938V2.15625C11.25 1.76563 11.1133 1.43359 10.8398 1.16016C10.5664 0.886719 10.2344 0.75 9.84375 0.75ZM15.4102 1.86328L12.1875 4.06055V8.68945L15.4102 10.8867C15.6055 11.0234 15.8203 11.082 16.0547 11.0625C16.2891 11.0234 16.4844 10.9258 16.6406 10.7695C16.7969 10.5938 16.875 10.3789 16.875 10.125V2.5957C16.875 2.36133 16.7969 2.16602 16.6406 2.00977C16.4844 1.83398 16.2891 1.73633 16.0547 1.7168C15.8203 1.67773 15.6055 1.72656 15.4102 1.86328Z" fill="#21B4C8"/>
</svg>
