<svg width="403" height="400" viewBox="0 0 403 400" fill="none" xmlns="http://www.w3.org/2000/svg">
<mask id="mask0_935_13166" style="mask-type:alpha" maskUnits="userSpaceOnUse" x="0" y="0" width="403" height="400">
<rect width="403" height="399.26" fill="#D8D8D8"/>
</mask>
<g mask="url(#mask0_935_13166)">
<path fill-rule="evenodd" clip-rule="evenodd" d="M52.7077 -116.879L-502.496 438.324L-501.788 439.031L53.4148 -116.172L52.7077 -116.879ZM84.6441 -116.879L-470.559 438.324L-469.852 439.031L85.3512 -116.172L84.6441 -116.879ZM-406.686 438.324L148.517 -116.879L149.224 -116.172L-405.979 439.031L-406.686 438.324ZM212.39 -116.879L-342.813 438.324L-342.106 439.031L213.097 -116.172L212.39 -116.879ZM-310.877 438.324L244.326 -116.879L245.034 -116.172L-310.17 439.031L-310.877 438.324ZM308.2 -116.879L-247.004 438.324L-246.296 439.031L308.907 -116.172L308.2 -116.879ZM-151.194 438.324L404.009 -116.879L404.716 -116.172L-150.487 439.031L-151.194 438.324ZM467.882 -116.879L-87.3217 438.324L-86.6145 439.031L468.589 -116.172L467.882 -116.879ZM-438.623 438.324L116.581 -116.879L117.288 -116.172L-437.916 439.031L-438.623 438.324ZM180.454 -116.879L-374.749 438.324L-374.042 439.031L181.161 -116.172L180.454 -116.879ZM-278.94 438.324L276.263 -116.879L276.97 -116.172L-278.233 439.031L-278.94 438.324ZM340.136 -116.879L-215.067 438.324L-214.36 439.031L340.843 -116.172L340.136 -116.879ZM-183.131 438.324L372.072 -116.879L372.78 -116.172L-182.424 439.031L-183.131 438.324ZM435.945 -116.879L-119.258 438.324L-118.551 439.031L436.652 -116.172L435.945 -116.879ZM-55.3852 438.324L499.818 -116.879L500.525 -116.172L-54.6781 439.031L-55.3852 438.324ZM531.755 -116.879L-23.4487 438.324L-22.7415 439.031L532.462 -116.172L531.755 -116.879ZM8.48785 438.324L563.691 -116.879L564.398 -116.172L9.19498 439.031L8.48785 438.324ZM595.628 -116.879L40.4243 438.324L41.1313 439.031L596.335 -116.172L595.628 -116.879ZM104.297 438.324L659.5 -116.879L660.207 -116.172L105.004 439.031L104.297 438.324ZM723.373 -116.879L168.17 438.324L168.877 439.031L724.08 -116.172L723.373 -116.879ZM200.106 438.324L755.31 -116.879L756.017 -116.172L200.813 439.031L200.106 438.324ZM819.183 -116.879L263.979 438.324L264.687 439.031L819.89 -116.172L819.183 -116.879ZM359.789 438.324L914.992 -116.879L915.699 -116.172L360.496 439.031L359.789 438.324ZM978.865 -116.879L423.662 438.324L424.369 439.031L979.572 -116.172L978.865 -116.879ZM72.3608 438.324L627.564 -116.879L628.271 -116.172L73.0679 439.031L72.3608 438.324ZM691.437 -116.879L136.233 438.324L136.94 439.031L692.144 -116.172L691.437 -116.879ZM232.043 438.324L787.246 -116.879L787.953 -116.172L232.75 439.031L232.043 438.324ZM851.119 -116.879L295.916 438.324L296.623 439.031L851.826 -116.172L851.119 -116.879ZM327.852 438.324L883.055 -116.879L883.763 -116.172L328.559 439.031L327.852 438.324ZM946.928 -116.879L391.725 438.324L392.432 439.031L947.635 -116.172L946.928 -116.879ZM455.598 438.324L1010.8 -116.879L1011.51 -116.172L456.305 439.031L455.598 438.324ZM1042.74 -116.879L487.534 438.324L488.241 439.031L1043.44 -116.172L1042.74 -116.879Z" fill="#D8D8D8"/>
<path fill-rule="evenodd" clip-rule="evenodd" d="M68.0501 -116.879L-487.153 438.324L-486.446 439.031L68.7572 -116.172L68.0501 -116.879ZM99.9864 -116.879L-455.217 438.324L-454.51 439.031L100.693 -116.172L99.9864 -116.879ZM-391.344 438.324L163.859 -116.879L164.566 -116.172L-390.637 439.031L-391.344 438.324ZM227.733 -116.879L-327.471 438.324L-326.764 439.031L228.44 -116.172L227.733 -116.879ZM-295.534 438.324L259.669 -116.879L260.376 -116.172L-294.827 439.031L-295.534 438.324ZM323.542 -116.879L-231.661 438.324L-230.954 439.031L324.249 -116.172L323.542 -116.879ZM-135.852 438.324L419.351 -116.879L420.058 -116.172L-135.145 439.031L-135.852 438.324ZM483.224 -116.879L-71.9793 438.324L-71.2722 439.031L483.931 -116.172L483.224 -116.879ZM-423.28 438.324L131.923 -116.879L132.63 -116.172L-422.573 439.031L-423.28 438.324ZM195.796 -116.879L-359.407 438.324L-358.7 439.031L196.503 -116.172L195.796 -116.879ZM-263.598 438.324L291.605 -116.879L292.312 -116.172L-262.891 439.031L-263.598 438.324ZM355.478 -116.879L-199.725 438.324L-199.018 439.031L356.186 -116.172L355.478 -116.879ZM-167.788 438.324L387.415 -116.879L388.122 -116.172L-167.081 439.031L-167.788 438.324ZM451.288 -116.879L-103.916 438.324L-103.209 439.031L451.995 -116.172L451.288 -116.879ZM-40.0428 438.324L515.16 -116.879L515.868 -116.172L-39.3357 439.031L-40.0428 438.324ZM547.097 -116.879L-8.10638 438.324L-7.39926 439.031L547.804 -116.172L547.097 -116.879ZM23.8301 438.324L579.033 -116.879L579.741 -116.172L24.5373 439.031L23.8301 438.324ZM610.97 -116.879L55.7667 438.324L56.4738 439.031L611.677 -116.172L610.97 -116.879ZM119.639 438.324L674.843 -116.879L675.55 -116.172L120.346 439.031L119.639 438.324ZM738.716 -116.879L183.512 438.324L184.219 439.031L739.423 -116.172L738.716 -116.879ZM215.449 438.324L770.652 -116.879L771.359 -116.172L216.156 439.031L215.449 438.324ZM834.525 -116.879L279.322 438.324L280.029 439.031L835.232 -116.172L834.525 -116.879ZM375.131 438.324L930.334 -116.879L931.041 -116.172L375.838 439.031L375.131 438.324ZM994.207 -116.879L439.004 438.324L439.711 439.031L994.914 -116.172L994.207 -116.879ZM87.7031 438.324L642.906 -116.879L643.613 -116.172L88.4102 439.031L87.7031 438.324ZM706.779 -116.879L151.576 438.324L152.283 439.031L707.486 -116.172L706.779 -116.879ZM247.385 438.324L802.588 -116.879L803.295 -116.172L248.092 439.031L247.385 438.324ZM866.461 -116.879L311.258 438.324L311.965 439.031L867.169 -116.172L866.461 -116.879ZM343.194 438.324L898.398 -116.879L899.105 -116.172L343.901 439.031L343.194 438.324ZM962.27 -116.879L407.067 438.324L407.774 439.031L962.978 -116.172L962.27 -116.879ZM470.94 438.324L1026.14 -116.879L1026.85 -116.172L471.647 439.031L470.94 438.324ZM1058.08 -116.879L502.876 438.324L503.583 439.031L1058.79 -116.172L1058.08 -116.879Z" fill="#D8D8D8"/>
</g>
</svg>
