<svg width="198" height="198" viewBox="0 0 198 198" fill="none" xmlns="http://www.w3.org/2000/svg">
<mask id="mask0_91_2561" style="mask-type:alpha" maskUnits="userSpaceOnUse" x="0" y="0" width="198" height="198">
<rect width="198" height="198" fill="#355A6B"/>
</mask>
<g mask="url(#mask0_91_2561)">
<path fill-rule="evenodd" clip-rule="evenodd" d="M14.6744 -15.2305L-207.4 206.844L-206.693 207.551L15.3815 -14.5234L14.6744 -15.2305ZM27.4486 -15.2305L-194.626 206.844L-193.919 207.551L28.1557 -14.5234L27.4486 -15.2305ZM-169.078 206.844L52.9969 -15.2305L53.704 -14.5234L-168.37 207.551L-169.078 206.844ZM78.5453 -15.2305L-143.529 206.844L-142.822 207.551L79.2524 -14.5234L78.5453 -15.2305ZM-130.755 206.844L91.3195 -15.2305L92.0266 -14.5234L-130.048 207.551L-130.755 206.844ZM116.868 -15.2305L-105.207 206.844L-104.5 207.551L117.575 -14.5234L116.868 -15.2305ZM-66.8841 206.844L155.19 -15.2305L155.898 -14.5234L-66.177 207.551L-66.8841 206.844ZM180.739 -15.2305L-41.3358 206.844L-40.6287 207.551L181.446 -14.5234L180.739 -15.2305ZM-181.852 206.844L40.2227 -15.2305L40.9298 -14.5234L-181.145 207.551L-181.852 206.844ZM65.7711 -15.2305L-156.303 206.844L-155.596 207.551L66.4782 -14.5234L65.7711 -15.2305ZM-117.981 206.844L104.094 -15.2305L104.801 -14.5234L-117.274 207.551L-117.981 206.844ZM129.642 -15.2305L-92.4324 206.844L-91.7253 207.551L130.349 -14.5234L129.642 -15.2305ZM-79.6583 206.844L142.416 -15.2305L143.123 -14.5234L-78.9512 207.551L-79.6583 206.844ZM167.965 -15.2305L-54.1099 206.844L-53.4028 207.551L168.672 -14.5234L167.965 -15.2305ZM-28.5616 206.844L193.513 -15.2305L194.22 -14.5234L-27.8545 207.551L-28.5616 206.844ZM206.287 -15.2305L-15.7874 206.844L-15.0803 207.551L206.994 -14.5234L206.287 -15.2305ZM-3.01326 206.844L219.061 -15.2305L219.768 -14.5234L-2.30615 207.551L-3.01326 206.844ZM231.835 -15.2305L9.76091 206.844L10.468 207.551L232.543 -14.5234L231.835 -15.2305ZM35.3094 206.844L257.384 -15.2305L258.091 -14.5234L36.0165 207.551L35.3094 206.844ZM282.932 -15.2305L60.8577 206.844L61.5648 207.551L283.639 -14.5234L282.932 -15.2305ZM73.6319 206.844L295.706 -15.2305L296.414 -14.5234L74.339 207.551L73.6319 206.844ZM321.255 -15.2305L99.1802 206.844L99.8873 207.551L321.962 -14.5234L321.255 -15.2305ZM137.503 206.844L359.577 -15.2305L360.284 -14.5234L138.21 207.551L137.503 206.844ZM385.126 -15.2305L163.051 206.844L163.758 207.551L385.833 -14.5234L385.126 -15.2305ZM22.5352 206.844L244.61 -15.2305L245.317 -14.5234L23.2423 207.551L22.5352 206.844ZM270.158 -15.2305L48.0835 206.844L48.7906 207.551L270.865 -14.5234L270.158 -15.2305ZM86.406 206.844L308.481 -15.2305L309.188 -14.5234L87.1131 207.551L86.406 206.844ZM334.029 -15.2305L111.954 206.844L112.661 207.551L334.736 -14.5234L334.029 -15.2305ZM124.729 206.844L346.803 -15.2305L347.51 -14.5234L125.436 207.551L124.729 206.844ZM372.351 -15.2305L150.277 206.844L150.984 207.551L373.059 -14.5234L372.351 -15.2305ZM175.825 206.844L397.9 -15.2305L398.607 -14.5234L176.532 207.551L175.825 206.844ZM410.674 -15.2305L188.599 206.844L189.307 207.551L411.381 -14.5234L410.674 -15.2305Z" fill="#355A6B"/>
</g>
</svg>
