<svg width="609" height="265" viewBox="0 0 609 265" fill="none" xmlns="http://www.w3.org/2000/svg">
<path fill-rule="evenodd" clip-rule="evenodd" d="M412 0H0V265H605V264.65H605.815C605.566 264.126 605.426 263.539 605.426 262.92C605.426 260.886 606.93 259.204 608.886 258.924V254.229C606.93 253.949 605.426 252.267 605.426 250.233C605.426 248.199 606.93 246.517 608.886 246.237V241.542C606.93 241.262 605.426 239.579 605.426 237.546C605.426 235.512 606.93 233.83 608.886 233.55V228.855C606.93 228.575 605.426 226.893 605.426 224.859C605.426 222.825 606.93 221.143 608.886 220.863V216.167C606.93 215.888 605.426 214.205 605.426 212.172C605.426 210.138 606.93 208.456 608.886 208.176V203.486C607.081 203.265 605.66 202.019 605.453 200.458C605.66 198.636 607.081 197.183 608.886 196.924V196.636V192.229V191.947C606.976 191.673 605.496 190.062 605.429 188.092C605.496 186.122 606.976 184.511 608.886 184.237V183.955V179.542V179.259C606.976 178.986 605.496 177.374 605.429 175.404C605.496 173.434 606.976 171.823 608.886 171.55V171.267V166.855V166.573C606.986 166.301 605.512 164.704 605.43 162.748C605.512 160.792 606.986 159.196 608.886 158.924V158.863V154.229V154.167C606.94 153.889 605.442 152.222 605.427 150.202C605.442 148.182 606.94 146.516 608.886 146.237V146.176V141.542V141.486C608.449 141.433 608.034 141.319 607.653 141.155C606.411 140.53 605.535 139.283 605.436 137.823C605.565 136.188 607.02 134.865 608.886 134.636V133.55V129.947V128.855C607.108 128.601 605.704 127.187 605.463 125.405C605.704 123.622 607.108 122.209 608.886 121.955V120.863V117.259V116.167C607.108 115.913 605.704 114.5 605.463 112.717C605.704 110.935 607.108 109.522 608.886 109.267V108.176V104.573V103.486C607.081 103.265 605.66 102.019 605.453 100.458C605.66 98.6359 607.081 97.1825 608.886 96.9242V96.6361V92.229V91.9468C606.976 91.6734 605.496 90.0619 605.429 88.092C605.496 86.122 606.976 84.5105 608.886 84.2372V83.955V79.5415V79.2593C606.976 78.9859 605.496 77.3744 605.429 75.4045C605.496 73.4345 606.976 71.823 608.886 71.5497V71.2675V66.855V66.5728C606.976 66.2994 605.496 64.6879 605.429 62.7179C605.496 60.748 606.976 59.1365 608.886 58.8632V54.1675C606.93 53.8876 605.426 52.2053 605.426 50.1716C605.426 48.1379 606.93 46.4555 608.886 46.1757V41.4863C606.93 41.2464 605.426 39.8043 605.426 38.0612C605.426 36.3181 606.93 34.876 608.886 34.6361V29.9468C606.93 29.6669 605.426 27.9846 605.426 25.9509C605.426 23.9172 606.93 22.2348 608.886 21.955V17.2593C606.93 16.9794 605.426 15.2971 605.426 13.2634C605.426 11.2297 606.93 9.5473 608.886 9.26746V4.57275C606.93 4.29291 605.426 2.61053 605.426 0.576843C605.426 0.380981 605.44 0.188416 605.467 0H605H412Z" fill="url(#paint0_linear_94_1986)"/>
<defs>
<linearGradient id="paint0_linear_94_1986" x1="123" y1="32" x2="455" y2="256" gradientUnits="userSpaceOnUse">
<stop stop-color="#168D9D"/>
<stop offset="1" stop-color="#25AABC"/>
</linearGradient>
</defs>
</svg>
