<svg width="15" height="16" viewBox="0 0 15 16" fill="none" xmlns="http://www.w3.org/2000/svg">
<path d="M14.7949 13.8535L11.8652 10.9238C11.7285 10.7871 11.5625 10.7188 11.3672 10.7188H10.8984C11.7578 9.625 12.1875 8.375 12.1875 6.96875C12.1875 5.85547 11.9141 4.83984 11.3672 3.92188C10.8203 2.98438 10.0781 2.24219 9.14062 1.69531C8.22266 1.14844 7.20703 0.875 6.09375 0.875C4.98047 0.875 3.95508 1.14844 3.01758 1.69531C2.09961 2.24219 1.36719 2.98438 0.820312 3.92188C0.273438 4.83984 0 5.85547 0 6.96875C0 8.08203 0.273438 9.10742 0.820312 10.0449C1.36719 10.9629 2.09961 11.6953 3.01758 12.2422C3.95508 12.7891 4.98047 13.0625 6.09375 13.0625C7.5 13.0625 8.75 12.6328 9.84375 11.7734V12.2422C9.84375 12.4375 9.91211 12.6035 10.0488 12.7402L12.9785 15.6699C13.1152 15.8066 13.2812 15.875 13.4766 15.875C13.6719 15.875 13.8379 15.8066 13.9746 15.6699L14.7949 14.8496C14.9316 14.7129 15 14.5469 15 14.3516C15 14.1562 14.9316 13.9902 14.7949 13.8535ZM6.09375 10.7188C5.41016 10.7188 4.77539 10.5527 4.18945 10.2207C3.62305 9.88867 3.17383 9.43945 2.8418 8.87305C2.50977 8.28711 2.34375 7.65234 2.34375 6.96875C2.34375 6.28516 2.50977 5.66016 2.8418 5.09375C3.17383 4.50781 3.62305 4.04883 4.18945 3.7168C4.77539 3.38477 5.41016 3.21875 6.09375 3.21875C6.77734 3.21875 7.40234 3.38477 7.96875 3.7168C8.55469 4.04883 9.01367 4.50781 9.3457 5.09375C9.67773 5.66016 9.84375 6.28516 9.84375 6.96875C9.84375 7.65234 9.67773 8.28711 9.3457 8.87305C9.01367 9.43945 8.55469 9.88867 7.96875 10.2207C7.40234 10.5527 6.77734 10.7188 6.09375 10.7188Z" fill="white"/>
</svg>
